<svg width="236" height="44" viewBox="0 0 236 44" fill="none" xmlns="http://www.w3.org/2000/svg">
<path d="M0.192472 43V0.818181H29.6044V9.09801H10.3878V17.7486H28.1009V26.049H10.3878V34.7202H29.6044V43H0.192472ZM45.5668 0.818181L55 31.7131H55.3501L64.7834 0.818181H76.1939L61.9616 43H48.3885L34.1562 0.818181H45.5668ZM80.7354 43V0.818181H110.147V9.09801H90.9308V17.7486H108.644V26.049H90.9308V34.7202H110.147V43H80.7354ZM152.432 0.818181V43H143.782L126.995 18.6548H126.728V43H116.532V0.818181H125.306L141.907 25.1222H142.257V0.818181H152.432ZM157.463 9.09801V0.818181H193.116V9.09801H180.325V43H170.274V9.09801H157.463ZM235.982 21.9091C235.982 26.5502 235.09 30.4841 233.305 33.7109C231.52 36.9377 229.103 39.3887 226.055 41.0639C223.02 42.7391 219.615 43.5767 215.839 43.5767C212.049 43.5767 208.637 42.7322 205.602 41.0433C202.568 39.3544 200.158 36.9034 198.373 33.6903C196.602 30.4635 195.716 26.5365 195.716 21.9091C195.716 17.268 196.602 13.334 198.373 10.1072C200.158 6.88044 202.568 4.42945 205.602 2.75426C208.637 1.07907 212.049 0.241476 215.839 0.241476C219.615 0.241476 223.02 1.07907 226.055 2.75426C229.103 4.42945 231.52 6.88044 233.305 10.1072C235.09 13.334 235.982 17.268 235.982 21.9091ZM225.56 21.9091C225.56 19.1629 225.169 16.8423 224.386 14.9474C223.617 13.0526 222.505 11.6177 221.05 10.6428C219.608 9.66785 217.871 9.1804 215.839 9.1804C213.82 9.1804 212.083 9.66785 210.628 10.6428C209.172 11.6177 208.053 13.0526 207.271 14.9474C206.502 16.8423 206.117 19.1629 206.117 21.9091C206.117 24.6553 206.502 26.9759 207.271 28.8707C208.053 30.7656 209.172 32.2005 210.628 33.1754C212.083 34.1503 213.82 34.6378 215.839 34.6378C217.871 34.6378 219.608 34.1503 221.05 33.1754C222.505 32.2005 223.617 30.7656 224.386 28.8707C225.169 26.9759 225.56 24.6553 225.56 21.9091Z" fill="#D82323"/>
</svg>
